<?xml version="1.0" encoding="utf-8"?>
<!-- Generator: Adobe Illustrator 22.0.0, SVG Export Plug-In . SVG Version: 6.00 Build 0)  -->
<svg version="1.1" id="Layer_1" xmlns="http://www.w3.org/2000/svg" xmlns:xlink="http://www.w3.org/1999/xlink" x="0px" y="0px"
	 viewBox="0 0 674 401" style="enable-background:new 0 0 674 401;" xml:space="preserve">
<style type="text/css">
	.st0{fill:#FFFFFF;}
	.st1{fill:#FFFFFF;stroke:#0F0F0F;stroke-width:9.4198;stroke-linecap:round;stroke-linejoin:round;stroke-miterlimit:10;}
	.st2{fill:none;stroke:#0F0F0F;stroke-width:9.4198;stroke-linecap:round;stroke-linejoin:round;stroke-miterlimit:10;}
	.st3{fill:#0F0F0F;}
	.st4{fill:none;stroke:#FFFFFF;stroke-width:9.4198;stroke-linecap:round;stroke-miterlimit:10;}
	.st5{fill:none;stroke:#FFFFFF;stroke-width:2.402;stroke-linecap:round;stroke-linejoin:round;stroke-miterlimit:10;}
</style>
<path class="st0" d="M629.7,380.6H44.3c-14.3,0-26-11.7-26-26V46.4c0-14.3,11.7-26,26-26h585.3c14.3,0,26,11.7,26,26v308.3
	C655.7,368.9,644,380.6,629.7,380.6z"/>
<g id="BONUS">
</g>
<g>
	<g id="Boba-Fett">
		<polyline class="st1" points="110.1,148.7 89.3,148.7 89.3,254.7 99.8,254.7 		"/>
		<line class="st2" x1="98.8" y1="148.7" x2="98.8" y2="92.2"/>
		<g>
			<path class="st0" d="M188.1,92.2C188.2,92.2,188.2,92.2,188.1,92.2c0.1,0,0.2,0,0.2,0H188.1z"/>
			<path class="st3" d="M270.7,174.6L270.7,174.6c-0.1-45.5-36.9-82.4-82.4-82.4c-45.5,0.1-82.3,36.9-82.3,82.4h-0.1l-7.1,94.2
				l68.3,40h42.4l69.2-40L270.7,174.6z"/>
		</g>
		<line class="st4" x1="106.5" y1="165.2" x2="270" y2="165.2"/>
		<path class="st0" d="M209.4,308.8v-98.9c0,0,28.9-9.5,47.6-16.8l-1.7-13.9h-2.6h-64.6h-65.7h-2.6l-1.1,13.9
			c18.7,7.2,48.2,16.8,48.2,16.8v98.9"/>
		<path class="st4" d="M103.5,206.1c29.4,15.3,49.5,46.1,49.5,81.5v12.9"/>
		<path class="st4" d="M273,207.8c-29.4,15.3-49.5,44.4-49.5,79.8v13"/>
		<line class="st5" x1="212.6" y1="123.6" x2="224.9" y2="138.3"/>
		<line class="st5" x1="202.4" y1="132.2" x2="202.4" y2="144"/>
	</g>
	<g>
		<path class="st3" d="M572.6,153.4H409.4c-6.6,0-12.1-5.4-12.1-12.1l0,0c0-6.6,5.4-12.1,12.1-12.1h163.2c6.6,0,12.1,5.4,12.1,12.1
			l0,0C584.7,148,579.2,153.4,572.6,153.4z"/>
		<path class="st3" d="M484.5,212.6h-75.1c-6.6,0-12.1-5.4-12.1-12.1l0,0c0-6.6,5.4-12.1,12.1-12.1h75.1c6.6,0,12.1,5.4,12.1,12.1
			l0,0C496.6,207.1,491.2,212.6,484.5,212.6z"/>
		<path class="st3" d="M572.6,212.6h-43.1c-6.6,0-12.1-5.4-12.1-12.1l0,0c0-6.6,5.4-12.1,12.1-12.1h43.1c6.6,0,12.1,5.4,12.1,12.1
			l0,0C584.7,207.1,579.2,212.6,572.6,212.6z"/>
		<path class="st3" d="M508.5,271.8h-99.1c-6.6,0-12.1-5.4-12.1-12.1l0,0c0-6.6,5.4-12.1,12.1-12.1h99.1c6.6,0,12.1,5.4,12.1,12.1
			l0,0C520.6,266.3,515.2,271.8,508.5,271.8z"/>
		<path class="st3" d="M572.6,271.8h-19.1c-6.6,0-12.1-5.4-12.1-12.1l0,0c0-6.6,5.4-12.1,12.1-12.1h19.1c6.6,0,12.1,5.4,12.1,12.1
			l0,0C584.7,266.3,579.2,271.8,572.6,271.8z"/>
	</g>
</g>
</svg>
