<?xml version="1.0" encoding="utf-8"?>
<!-- Generator: Adobe Illustrator 22.0.0, SVG Export Plug-In . SVG Version: 6.00 Build 0)  -->
<svg version="1.1" id="_x31_" xmlns="http://www.w3.org/2000/svg" xmlns:xlink="http://www.w3.org/1999/xlink" x="0px" y="0px"
	 viewBox="0 0 800 800" style="enable-background:new 0 0 800 800;" xml:space="preserve">
<style type="text/css">
	.st0{fill:#FFFFFF;}
	.st1{fill:none;stroke:#000000;stroke-width:7;stroke-linecap:round;stroke-linejoin:round;stroke-miterlimit:10;}
	.st2{fill:none;}
</style>
<g>
	<g>
		<path class="st0" d="M220.8,353.9L267.1,527c11.9,45.6,50,78.2,96.3,81.9c4.4,0.6,9.4,0.6,9.4,0.6h67.5c10,0,17.5-7.5,18.1-18.1
			c0-10-7.5-17.5-17.5-17.5h-67.5c0,0-3.8,0-6.3,0c-30.6-2.5-57.5-25-65-55.6l-46.9-173.1c-3.1-10-12.5-15-21.9-12.5
			C224,335.8,218.3,345.2,220.8,353.9z"/>
		<path class="st0" d="M375.3,545.8h111.2v128.1c0,19.4,15.6,35,35,35c19.4,0,28.8-3.1,28.8-22.5V525.8c0-8.8,2.5-30.6-4.4-36.9
			c-6.9-6.9-16.3-10.6-24.4-10.6h-93.1c-2.5-35-7.5-70-16.9-105.6c-0.6-3.1-2.5-10-2.5-10.6c-11.9-45.6-55-73.8-100-69.4
			c0,0-5.6,0.6-6.9,0.6c-16.9,3.7-26.9,21.2-22.5,38.1l48.1,178.1c5,20,21.8,35,43.1,36.3H375.3z"/>
	</g>
	<g id="Storm-Trooper">
		<path class="st0" d="M323.7,258.9c-1.2,2.4-3.5,5.6-5.5,7.6c-10.5,10.5-27.4,10.5-37.9,0l-11.2-11.2c-6-6-8.6-14.2-7.7-22
			c0,0-15.8-21.8-15.8-30.4c0-9.8,7.9-17.8,17.8-17.8h-8.9l4.5-35.7h4.5v-26.8l0,0c0-29.4,24-53.5,53.5-53.5h22.4h22.3
			c29.4,0,53.5,24,53.5,53.5l0,0v26.8h4.5l4.5,35.7h-8.9c9.8,0,17.8,7.9,17.8,17.8c0,8.6-15.8,30.4-15.8,30.4c0.9,7.8-1.7,16-7.7,22
			l-11.2,11.2c-10.5,10.5-27.4,10.5-37.9,0c-2-2-4.3-5.2-5.5-7.6"/>
		<path d="M339.2,222.5c9.8,0,17.8,18.1,17.8,28c0,9.8-7.9,17.8-17.8,17.8c-9.8,0-17.8-7.9-17.8-17.8S329.4,222.4,339.2,222.5z"/>
		<g>
			<ellipse cx="292.4" cy="238.7" rx="11.2" ry="11.2"/>
		</g>
		<g>
			<ellipse cx="386.1" cy="238.7" rx="11.2" ry="11.2"/>
		</g>
		<path d="M281.4,165v-15.6H326c0,15.4-21.1,26.8-33.5,26.8c-6.2,0-11.2-5-11.2-11.2H281.4z"/>
		<path d="M397.2,165v-15.6h-44.6c0,15.4,21.1,26.8,33.5,26.8c6.2,0,11.2-5,11.2-11.2H397.2z"/>
		<path class="st1" d="M383.9,209.7c-6.6,0-14.2-5.6-26.2-12.3c-5.4-3-11.1-5.6-18.4-5.6s-13,2.6-18.4,5.6
			c-12,6.7-19.6,12.3-26.2,12.3"/>
		<line class="st2" x1="263.4" y1="131.6" x2="415.1" y2="131.6"/>
		<line class="st2" x1="263.6" y1="118.2" x2="415" y2="118.2"/>
		<rect x="263.6" y="126.6" width="151.5" height="13.4"/>
	</g>
	<g id="BONUS">
	</g>
	<g id="BONUS_1_">
	</g>
</g>
</svg>
